<svg xmlns="http://www.w3.org/2000/svg" width="597" height="550" viewBox="469 64 597 550">
  <defs>
    <!-- Gradients calibrated against AuroraMES_Logo_2.png pixel samples (userSpaceOnUse
         coordinates are absolute so they are unaffected by the cropped viewBox). -->
    <radialGradient id="aMarkGrad" gradientUnits="userSpaceOnUse" cx="700" cy="350" r="300">
      <stop offset="0%"   stop-color="#2A8AFF"/>
      <stop offset="47%"  stop-color="#2956BB"/>
      <stop offset="88%"  stop-color="#0B38B5"/>
      <stop offset="100%" stop-color="#114AB6"/>
    </radialGradient>

    <radialGradient id="starGrad" gradientUnits="userSpaceOnUse" cx="768" cy="483" r="72">
      <stop offset="0%"   stop-color="#2A72E0"/>
      <stop offset="55%"  stop-color="#1E5FC6"/>
      <stop offset="100%" stop-color="#1450B4"/>
    </radialGradient>

    <radialGradient id="swooshGrad" gradientUnits="userSpaceOnUse" cx="768" cy="490" r="300">
      <stop offset="0%"   stop-color="#2268DC"/>
      <stop offset="50%"  stop-color="#1A52C4"/>
      <stop offset="88%"  stop-color="#114AB6"/>
      <stop offset="100%" stop-color="#0E3898"/>
    </radialGradient>
  </defs>

  <!-- ═══ A letter mark body ═══ -->
  <path fill="url(#aMarkGrad)"
        d="M 767.209 94.633 C 766.666 95.660, 762.740 104.150, 758.484 113.500
           C 749.491 133.258, 693.332 253.078, 675.995 289.500
           C 672.591 296.650, 659.102 325.225, 646.018 353
           C 632.935 380.775, 612.447 424.200, 600.489 449.500
           C 588.530 474.800, 577.457 498.347, 575.881 501.827
           L 573.014 508.154 576.257 506.206
           C 603.409 489.895, 632.580 477.457, 662.740 469.332
           L 676.964 465.500 679.116 460.500
           C 681.092 455.908, 709.611 393.704, 739.404 329
           C 746.115 314.425, 755.182 294.518, 759.553 284.763
           C 763.924 275.007, 767.725 267.024, 768 267.023
           C 768.275 267.022, 772.275 275.454, 776.888 285.760
           C 784.765 303.358, 804.125 345.486, 842.905 429.417
           C 857.073 460.080, 859.866 465.442, 862 466.074
           C 903.168 478.263, 923.546 486.332, 948.906 500.485
           C 959.887 506.613, 961.970 507.477, 961.402 505.669
           C 960.362 502.359, 918.304 412.493, 874.273 319.500
           C 869.064 308.500, 858.479 286, 850.749 269.500
           C 843.019 253, 832.777 231.175, 827.990 221
           C 810.713 184.282, 783.088 125.159, 775.720 109.133
           C 769.509 95.622, 768.024 93.091, 767.209 94.633"/>

  <!-- ═══ Star / compass element ═══ -->
  <path fill="url(#starGrad)"
        d="M 767.713 423 C 767.395 423.825, 765.728 434.400, 764.009 446.500
           C 762.289 458.600, 760.572 469.768, 760.191 471.318
           L 759.500 474.135 752.170 468.433 L 744.839 462.731 749.890 470.116
           C 754.246 476.485, 754.704 477.593, 753.220 478.180
           C 752.274 478.554, 743.515 480.574, 733.755 482.669
           L 716.009 486.478 728.255 488.697
           C 734.990 489.917, 743.650 491.453, 747.500 492.110
           C 751.350 492.767, 754.666 493.440, 754.870 493.606
           C 755.073 493.771, 753.386 496.622, 751.120 499.942
           C 748.854 503.261, 747 506.206, 747 506.485
           C 747 506.764, 749.809 504.728, 753.242 501.962
           L 759.485 496.932 760.170 499.716
           C 760.547 501.247, 762.278 512.175, 764.016 524
           C 765.754 535.825, 767.416 546.175, 767.708 547
           C 768 547.825, 769.474 540.175, 770.985 530
           C 772.495 519.825, 774.283 508.229, 774.959 504.232
           L 776.187 496.964 782.728 502.105
           C 786.326 504.933, 788.897 506.628, 788.442 505.873
           C 787.986 505.118, 786.088 502.100, 784.223 499.167
           C 782.358 496.234, 780.983 493.717, 781.166 493.574
           C 781.350 493.430, 790.453 491.802, 801.395 489.955
           C 812.337 488.108, 820.887 486.469, 820.395 486.312
           C 819.903 486.156, 811.269 484.278, 801.208 482.139
           C 791.148 480, 782.641 477.974, 782.304 477.637
           C 781.966 477.300, 783.821 473.820, 786.425 469.903
           C 791.535 462.219, 791.373 462.164, 782.826 468.677
           C 779.705 471.054, 776.668 473, 776.076 473
           C 775.484 473, 774.971 471.538, 774.936 469.750
           C 774.816 463.695, 768.295 421.490, 767.713 423"/>

  <!-- ═══ Left swoosh arc ═══ -->
  <path fill="url(#swooshGrad)"
        d="M 722 475.001 C 691.696 479.065, 669.820 484.015, 644.224 492.599
           C 604.210 506.019, 566.477 526.295, 533.370 552.165
           C 522.869 560.371, 498.577 582.910, 499.375 583.708
           C 499.624 583.958, 504.930 580.561, 511.164 576.159
           C 570.050 534.584, 639.325 508.774, 709 502.453
           C 718.625 501.580, 729.648 500.558, 733.495 500.183
           L 740.489 499.500 722.735 494.221
           C 695.974 486.265, 696.454 487.789, 718.385 480.414
           C 728.772 476.921, 737.509 473.824, 737.802 473.532
           C 738.512 472.822, 737.663 472.900, 722 475.001"/>

  <!-- ═══ Right swoosh arc ═══ -->
  <path fill="url(#swooshGrad)"
        d="M 816.207 479.312 C 834.056 485.293, 836.877 486.456, 835.904 487.429
           C 835.668 487.666, 826.741 490.478, 816.066 493.679
           C 793.499 500.447, 793.103 499.947, 823.015 502.445
           C 893.161 508.303, 960.039 532.275, 1020.977 573.404
           C 1028.389 578.407, 1035.139 582.893, 1035.977 583.374
           C 1039.092 585.162, 1021.163 567.540, 1012 559.808
           C 959.049 515.127, 883.446 482.702, 813.006 474.462
           C 806.134 473.658, 799.834 473.010, 799.006 473.022
           C 798.178 473.034, 805.918 475.865, 816.207 479.312"/>
</svg>
